<svg width="1200" height="630" viewBox="0 0 1200 630" fill="none" xmlns="http://www.w3.org/2000/svg"><path fill="#020617" d="M0 0h1200v630H0z"/><defs><pattern id="a" x="0" y="0" width="40" height="40" patternUnits="userSpaceOnUse"><circle cx="2" cy="2" r="1" fill="#fff" fill-opacity=".1"/></pattern></defs><path fill="url(#a)" d="M0 0h1200v630H0z"/><path fill="url(#b)" fill-opacity=".2" d="M0 400h1200v230H0z"/><text x="100" y="220" font-family="sans-serif" font-weight="800" font-size="90" letter-spacing="-3">
    <tspan fill="#818cf8">React</tspan> 
    <tspan fill="#94a3b8"> And </tspan> 
    <tspan fill="#c084fc">Next.js</tspan>
  </text><text x="100" y="320" fill="#fff" font-family="sans-serif" font-weight="800" font-size="90" letter-spacing="-3">
    Product Specialist
  </text><g transform="translate(100 380)"><rect width="160" height="50" rx="25" fill="#1e293b" stroke="#334155"/><text x="80" y="32" fill="#cbd5e1" font-family="sans-serif" font-weight="600" font-size="20" text-anchor="middle">Build MVPs</text><rect x="180" width="180" height="50" rx="25" fill="#1e293b" stroke="#334155"/><text x="270" y="32" fill="#cbd5e1" font-family="sans-serif" font-weight="600" font-size="20" text-anchor="middle">SaaS Apps</text><rect x="380" width="220" height="50" rx="25" fill="#1e293b" stroke="#334155"/><text x="490" y="32" fill="#cbd5e1" font-family="sans-serif" font-weight="600" font-size="20" text-anchor="middle">Code Audits</text></g><g transform="translate(100 80)"><rect width="280" height="36" rx="18" fill="#10b981" fill-opacity=".1" stroke="#10b981" stroke-opacity=".3"/><circle cx="25" cy="18" r="4" fill="#10b981"/><text x="45" y="23" fill="#34d399" font-family="monospace" font-size="14" font-weight="bold" letter-spacing="1">AVAILABLE FOR HIRE</text></g><path stroke="#334155" d="M100 530h1000"/><circle cx="120" cy="580" r="20" fill="#6366f1"/><text x="112" y="588" fill="#fff" font-family="serif" font-weight="bold" font-size="24">Y</text><text x="160" y="588" fill="#fff" font-family="sans-serif" font-weight="700" font-size="24">Yogesh Bhavsar</text><text x="360" y="588" fill="#94a3b8" font-family="sans-serif" font-size="20">Senior Frontend Architect</text><text x="1100" y="588" fill="#94a3b8" font-family="monospace" font-size="20" text-anchor="end">consult.yogeshbhavsar.com</text><g transform="translate(800 150)" opacity=".8"><rect width="300" height="300" rx="16" fill="#0f172a" stroke="#334155" stroke-width="2"/><rect x="20" y="20" width="40" height="40" rx="8" fill="#6366f1"/><rect x="80" y="25" width="120" height="12" rx="6" fill="#334155"/><rect x="80" y="45" width="80" height="12" rx="6" fill="#1e293b"/><rect x="20" y="90" width="100" height="10" rx="5" fill="#c084fc"/><rect x="130" y="90" width="120" height="10" rx="5" fill="#1e293b"/><rect x="20" y="120" width="60" height="10" rx="5" fill="#818cf8"/><rect x="90" y="120" width="160" height="10" rx="5" fill="#1e293b"/><rect x="20" y="150" width="200" height="10" rx="5" fill="#1e293b"/><circle cx="240" cy="240" r="35" stroke="#10b981" stroke-width="4"/><text x="240" y="248" fill="#10b981" font-family="sans-serif" font-weight="bold" font-size="20" text-anchor="middle">100</text></g><defs><linearGradient id="b" x1="600" y1="400" x2="600" y2="630" gradientUnits="userSpaceOnUse"><stop stop-color="#020617" stop-opacity="0"/><stop offset="1" stop-color="#4f46e5"/></linearGradient></defs></svg>